<svg width="49" height="49" viewBox="0 0 49 49" fill="none" xmlns="http://www.w3.org/2000/svg">
<g filter="url(#filter0_d_502_32)">
<rect x="6.0069" y="2.16218" width="36.7183" height="36.7183" rx="8.34507" stroke="#FFFBFB" stroke-width="3.33803"/>
<path d="M19.2903 26.9122H15.7653V22.6395H19.2903V19.5774C19.2903 18.6279 19.3734 17.7378 19.5395 16.907C19.7057 16.0525 20.0262 15.3047 20.5009 14.6638C20.9756 14.0229 21.6521 13.5245 22.5304 13.1684C23.4324 12.7886 24.6074 12.5987 26.0554 12.5987C26.6013 12.5987 27.1354 12.6225 27.6576 12.6699C28.1798 12.7174 28.6902 12.8005 29.1887 12.9192L28.9394 17.4411C28.6309 17.3224 28.346 17.2393 28.0849 17.1918C27.8238 17.1206 27.5271 17.085 27.1948 17.085C26.3402 17.085 25.6993 17.2749 25.2721 17.6547C24.8448 18.0108 24.6312 18.7585 24.6312 19.8979V22.6395H28.5834V26.9122H24.6312V39.9438H19.2903V26.9122Z" fill="#FFFBFB"/>
</g>
<defs>
<filter id="filter0_d_502_32" x="0.337891" y="0.493164" width="48.0562" height="48.0564" filterUnits="userSpaceOnUse" color-interpolation-filters="sRGB">
<feFlood flood-opacity="0" result="BackgroundImageFix"/>
<feColorMatrix in="SourceAlpha" type="matrix" values="0 0 0 0 0 0 0 0 0 0 0 0 0 0 0 0 0 0 127 0" result="hardAlpha"/>
<feOffset dy="4"/>
<feGaussianBlur stdDeviation="2"/>
<feComposite in2="hardAlpha" operator="out"/>
<feColorMatrix type="matrix" values="0 0 0 0 0 0 0 0 0 0 0 0 0 0 0 0 0 0 0.25 0"/>
<feBlend mode="normal" in2="BackgroundImageFix" result="effect1_dropShadow_502_32"/>
<feBlend mode="normal" in="SourceGraphic" in2="effect1_dropShadow_502_32" result="shape"/>
</filter>
</defs>
</svg>
