<svg width="300" height="300" viewBox="0 0 300 300" fill="none" xmlns="http://www.w3.org/2000/svg">
<path d="M3.11485 300C-0.862995 297.057 -1.01869 294.816 2.57773 291.219C17.2747 276.507 31.9796 261.81 46.7155 247.128C47.4706 246.381 48.4826 245.898 49.3856 245.283C48.4436 244.007 47.9844 243.399 47.5329 242.784C43.6017 237.429 43.882 231.108 48.4981 226.219C51.573 222.957 54.9047 219.945 58.0574 216.878C52.9586 208.58 53.4646 204.384 60.1281 197.728C102.102 155.762 144.075 113.788 186.057 71.8303C186.874 71.0129 187.832 70.3201 189.21 69.1524C187.279 67.3698 185.644 66.0075 184.189 64.4896C178.335 58.4021 178.498 51.1159 184.547 45.0752C190.813 38.8243 198.022 38.6063 204.179 44.6081C208.165 48.4847 211.995 52.5171 215.794 56.3704C222.527 49.4656 229.097 42.7398 235.916 35.7494C232.779 32.6201 229.222 28.7434 225.314 25.256C216.883 17.7362 219.234 6.46434 229.844 1.21763C234.523 -1.09435 239.746 -0.0590212 243.856 3.85655C247.32 7.15715 250.676 10.5667 254 14.0075C255.136 15.1829 256.023 15.5644 257.752 14.8793C265.98 11.6332 273.647 12.941 279.891 19.1685C286.118 25.3727 287.628 33.0015 284.359 41.2686C283.65 43.0668 283.97 44.0476 285.262 45.2776C288.516 48.368 291.676 51.5674 294.806 54.7824C300.683 60.8231 300.574 68.1327 294.572 74.2045C288.368 80.4788 281.066 80.7279 274.947 74.8039C271.024 71.0051 267.171 67.1285 263.286 63.283C263.224 63.2207 263.107 63.2051 263.271 63.2752C256.592 69.9542 249.991 76.5632 243.047 83.5069C246.55 86.9866 250.38 90.8165 254.233 94.6153C256.74 97.083 258.476 99.901 258.803 103.521C259.285 108.923 255.782 114.761 250.17 117.72C245.203 120.327 239.988 119.642 235.566 115.758C234.032 114.411 232.577 112.971 230.514 111.041C227.525 114.224 224.676 117.525 221.507 120.483C220.363 121.55 218.401 122.437 216.914 122.297C213.373 121.962 212.267 117.688 214.922 114.863C217.997 111.593 221.274 108.526 224.201 105.63C214.244 95.6818 204.405 85.8578 194.713 76.1818C191.732 79.1243 188.338 82.4716 184.305 86.4572C186.462 88.38 188.782 90.4117 191.055 92.4902C191.919 93.2764 192.744 94.1249 193.46 95.0435C194.994 97.0285 194.955 99.0992 193.18 100.851C191.405 102.602 189.249 102.657 187.38 101.045C185.24 99.2004 183.255 97.1686 181.301 95.1213C180.367 94.1405 179.658 92.9417 178.958 91.9842C175.447 95.5417 172.528 98.5076 169.227 101.847C171.78 104.315 174.692 107.024 177.471 109.865C179.432 111.873 179.51 114.396 177.914 116.17C176.155 118.124 173.664 118.257 171.469 116.1C168.62 113.306 166.028 110.254 163.42 107.429C159.948 110.939 157.013 113.905 153.65 117.299C156.25 119.798 159.162 122.484 161.933 125.294C163.988 127.372 164.105 129.692 162.501 131.568C160.773 133.6 158.095 133.678 155.822 131.482C153.012 128.773 150.389 125.885 147.898 123.285C144.636 126.532 141.623 129.521 138.175 132.946C140.611 135.227 143.352 137.71 145.983 140.302C148.481 142.754 148.738 145.261 146.878 147.223C145.025 149.184 142.417 149.021 139.957 146.569C137.334 143.961 134.859 141.205 132.391 138.605C129.083 141.999 126.132 145.027 122.801 148.445C125.159 150.679 127.884 153.17 130.499 155.762C132.99 158.238 133.247 160.736 131.379 162.675C129.394 164.73 126.88 164.488 124.241 161.865C121.68 159.32 119.204 156.696 116.923 154.338C113.716 157.506 110.704 160.495 107.419 163.741C109.746 166.022 112.408 168.583 115.008 171.199C117.647 173.853 117.865 176.305 115.756 178.314C113.841 180.135 111.342 179.855 108.812 177.38C106.173 174.803 103.635 172.125 101.183 169.634C97.9605 172.872 95.0257 175.815 91.7718 179.084C94.3407 181.583 97.0497 184.222 99.7664 186.861C101.456 188.503 102.242 190.403 101.129 192.653C99.7898 195.346 96.4347 195.782 93.9515 193.431C91.1179 190.753 88.4946 187.857 85.9568 185.242C83.0688 188.208 80.391 190.963 77.4485 193.991C80.6556 197.199 84.3532 200.896 88.0431 204.594C89.2808 205.839 90.5886 207.03 91.7173 208.369C93.3754 210.331 93.2898 212.838 91.6628 214.449C89.9581 216.138 87.3736 216.193 85.3575 214.27C81.5431 210.627 77.8533 206.867 74.1479 203.115C73.0503 202.009 72.0772 200.78 70.6371 199.129C68.3484 201.62 66.3478 203.738 64.4095 205.917C62.5724 207.98 63.6389 209.615 65.2503 211.218C72.1706 218.1 79.0598 225.02 85.9646 231.925C87.07 233.03 88.1676 234.136 89.2808 235.233C90.97 236.907 92.6748 236.923 94.403 235.265C96.3802 233.381 98.373 231.52 100.903 229.13C98.9724 227.48 97.2287 226.196 95.7419 224.662C93.6012 222.459 93.5467 219.96 95.3527 218.147C97.182 216.302 99.6419 216.333 101.853 218.474C103.378 219.953 104.647 221.696 106.718 224.125C107.792 222.506 108.252 221.471 108.999 220.723C140.316 189.36 171.664 158.02 203.004 126.679C203.696 125.987 204.35 125.263 205.098 124.632C207.098 122.966 209.527 122.951 211.193 124.547C212.944 126.22 212.96 128.758 211.185 130.86C210.555 131.599 209.831 132.261 209.138 132.954C173.368 168.7 137.599 204.446 101.822 240.192C95.5161 246.49 90.9389 246.98 83.0611 241.874C80.6557 244.411 78.2269 247.074 75.6892 249.627C68.8077 256.555 63.3664 256.975 55.2628 251.036C38.8766 267.321 22.4514 283.653 6.01846 299.984C5.06097 300 4.08791 300 3.11485 300ZM290.983 64.8399C289.933 63.1117 289.473 61.8896 288.632 61.0488C271.725 44.1799 254.786 27.3344 237.808 10.5356C235.286 8.04458 233.744 8.2859 230.926 11.1272C228.513 13.5715 228.272 15.72 230.537 17.9697C247.515 34.9087 264.54 51.8009 281.541 68.7165C282.818 69.9854 284.312 71.0129 285.908 69.8063C287.737 68.4285 289.224 66.5991 290.983 64.8399ZM194.083 48.4458C192.308 50.2207 190.385 51.6764 189.101 53.568C187.941 55.265 189.186 56.8452 190.51 58.1686C207.316 75.0453 224.092 91.9531 240.922 108.814C243.28 111.181 245.39 110.939 247.974 108.347C250.598 105.724 250.808 103.708 248.403 101.302C231.588 84.4333 214.735 67.5955 197.858 50.7812C197.025 49.9482 195.811 49.4889 194.083 48.4458ZM243.249 43.3314C236.477 50.1039 229.821 56.7518 223.446 63.1273C227.719 67.3931 232.258 71.9237 236.399 76.0495C242.938 69.6273 249.664 63.0261 256.374 56.4327C251.952 52.0189 247.461 47.5428 243.249 43.3314ZM76.9113 235.942C72.5598 231.59 68.3718 227.395 64.0281 223.051C61.0778 226.009 57.8628 229.107 54.7958 232.353C53.0443 234.214 53.2622 236.292 54.9826 238.106C57.061 240.301 59.1628 242.481 61.3814 244.528C64.0281 246.972 65.6006 247.035 68.2239 244.614C71.2287 241.842 74.0233 238.845 76.9113 235.942ZM276.722 36.2398C277.82 31.7716 276.528 28.1907 273.507 25.2015C270.557 22.2823 266.68 21.4494 263.201 22.6638C267.583 27.062 272.028 31.5225 276.722 36.2398Z" fill="#6F5260"/>
</svg>
